<?xml version="1.0" encoding="utf-8"?>
<!-- Generator: Adobe Illustrator 21.0.0, SVG Export Plug-In . SVG Version: 6.00 Build 0)  -->
<svg version="1.0" id="Layer_1" xmlns="http://www.w3.org/2000/svg" xmlns:xlink="http://www.w3.org/1999/xlink" x="0px" y="0px"
	 width="576px" height="576px" viewBox="0 0 576 576" enable-background="new 0 0 576 576" xml:space="preserve">
<path d="M361.315,425.322c-1.897-3.761-4.04-7.217-6.797-10.609c-1.441-1.66-2.921-3.33-5.482-4.773
	c-2.624-1.355-5.359-1.51-7.701-1.406c-2.38,0.118-4.547,0.552-6.616,1.071c-2.069,0.517-4.047,1.111-5.987,1.709
	c-0.972,0.294-1.921,0.622-2.869,0.928c-0.457,0.146-0.983,0.332-1.377,0.44l-1.175,0.332c-1.573,0.371-3.156,0.499-4.848,0.451
	c-3.37-0.051-7.276-0.963-11.447-1.443c-2.088-0.245-4.226-0.395-6.367-0.451l-2.772,0.011c-0.57-0.025-1.076-0.135-1.566-0.35
	c-0.974-0.41-1.956-1.333-2.822-2.635c-0.865-1.299-1.547-2.915-2.117-4.62c-1.125-3.409-5.876-15.831-5.876-15.831
	c0.355-1.126-4.137,11.042-5.735,14.427c-0.819,1.682-1.622,3.362-2.482,4.902c-0.407,0.725-0.832,1.424-1.239,1.988l-0.355,0.004
	l-1.48,0.025l-2.873,0.05l-5.675,0.118c-3.769,0.013-7.519,0.05-11.248-0.064c-3.725-0.152-7.434-0.277-11.089-0.653l-1.381-0.135
	l-1.845-0.106l-1.865,0.061c-0.622,0.071-1.243,0.144-1.86,0.236c-2.463,0.44-4.838,1.325-6.871,2.594
	c-2.046,1.254-3.801,2.781-5.317,4.415c-1.496,1.66-2.73,3.444-3.82,5.261c-1.072,1.831-1.956,3.722-2.709,5.642
	c-0.746,1.95-1.326,3.836-1.766,5.977c-0.212,1.038,8.316-4.811,10.535-7.453c2.195-2.683,4.711-4.938,7.337-6.188
	c1.322-0.605,2.623-1.043,3.967-1.176l1.009-0.059l1.019,0.036l2.517,0.305c3.99,0.475,7.969,0.793,11.933,0.808
	c3.962,0.051,7.908-0.028,11.824-0.324c1.958-0.137,3.912-0.279,5.849-0.479l5.489-0.596c0.281-0.002,0.815-0.055,1.119-0.139
	c0.307-0.076,0.679-0.202,0.883-0.304c0.508-0.23,0.839-0.462,1.119-0.674c0.556-0.434,0.856-0.782,1.134-1.11
	c0.535-0.647,0.861-1.202,1.164-1.732c0.59-1.057,1.02-2.028,1.428-2.998c0.487-1.175,0.91-2.332,1.307-3.486
	c0.447,1.606,1.053,3.22,1.907,4.826c1.135,2.134,2.905,4.346,5.531,5.739c1.29,0.693,2.747,1.129,4.164,1.295
	c0.356,0.046,0.709,0.072,1.059,0.084l0.774,0.043l1.389,0.066c1.853,0.129,3.701,0.334,5.575,0.634l5.823,0.997
	c2.025,0.337,4.184,0.663,6.493,0.742c2.303,0.072,4.736-0.173,7.05-0.756l1.705-0.504c0.566-0.171,0.98-0.328,1.473-0.492
	l2.819-0.974c3.689-1.308,7.39-2.527,10.636-2.954c1.617-0.202,3.026-0.096,4.03,0.304c1.004,0.398,2.471,1.54,3.736,2.802
	C352.306,421.706,361.928,426.537,361.315,425.322z M275.553,410.052c0.01-0.008,0.029-0.02,0.04-0.029
	c-0.049,0.053-0.106,0.116-0.136,0.141C275.419,410.199,275.385,410.2,275.553,410.052z"/>
<g>
	<path d="M263.642,132.633c-3.575,0-8.514-2.882-15.369-22.303c-0.107-0.304-0.205-0.546-0.291-0.737
		c-0.689,0.383-1.642,1.03-2.4,1.544c-2.456,1.666-5.819,3.948-10.073,5.068c-1.788,0.47-5.974,1.57-8.161-1.364
		c-2.187-2.933-0.144-6.29,2.019-9.843c0.379-0.623,0.777-1.276,1.153-1.927c-0.987,0.222-2.017,0.479-2.871,0.692
		c-5.727,1.428-10.673,2.66-13.687,0.036l-0.971-0.845l-0.233-1.267c-0.5-2.713,0.132-8.521,5.671-13.083
		c5.229-4.306,15.27-13.396,15.392-13.338c4.611,2.17-12.963,21.495-13.378,22.546c1.689-0.271,3.886-0.818,5.422-1.202
		c5.472-1.364,9.793-2.442,12.302,0.271c0.735,0.794,1.831,2.54,0.911,5.303c-0.69,2.07-1.906,4.158-3.05,6.046
		c2.012-0.885,3.792-2.092,5.415-3.194c2.947-1.999,5.731-3.887,8.959-2.827c3.193,1.05,4.419,4.525,4.822,5.666
		c3.789,10.736,6.747,15.329,8.185,16.86c0.364-0.705,0.884-2.008,1.421-4.336c1.768-7.659,1.59-14.319,1.473-18.727
		c-0.126-4.727-0.217-8.143,2.929-9.541c3.344-1.484,6.513,1.534,9.31,4.197c10.218,9.732,14.062,11.266,15.261,11.469
		c0.106-0.357,0.238-1.04,0.238-2.232c0-7.548,3.129-13.52,8.371-15.975c4.903-2.298,10.697-1.128,15.902,3.207
		c3.412,2.844,6.525,6.645,9.273,9.999c0.618,0.753,1.317,1.608,2.001,2.415c0.356-2.819,1.536-4.9,3.519-6.201
		c4.23-2.775,10.132-0.536,15.124,1.609c-0.19-1.457,0.251-2.547,0.631-3.184c1.374-2.301,3.952-2.786,6.783-2.812
		c-6.787-6.511-9.804-20.014-9.804-20.014c0.115,0.116,11.624,11.709,18.559,18.15c0.899,0.833,3.629,3.37,2.337,6.453
		c-1.331,3.176-4.955,3.011-8.473,2.855c-0.392-0.018-0.866-0.04-1.353-0.055c0.98,2.085,1.568,4.542-0.158,6.51
		c-2.434,2.771-5.933,1.254-10.361-0.669c-2.156-0.936-7.882-3.424-9.244-2.679c0.012,0.001-0.305,0.454-0.305,1.971
		c0,2.009,0,6.714-3.651,8.019c-3.868,1.379-6.829-2.23-11.308-7.698c-2.539-3.1-5.417-6.612-8.29-9.007
		c-2.914-2.429-5.849-3.227-8.055-2.195c-2.545,1.193-4.126,4.756-4.126,9.3c0,4.749-1.51,7.804-4.489,9.081
		c-4.848,2.076-11.378-1.501-23.24-12.767c0.125,4.78,0.254,11.842-1.669,20.178c-0.647,2.803-2.365,10.247-7.977,10.563
		C263.907,132.628,263.775,132.633,263.642,132.633z"/>
</g>
<g>
	<path d="M542.861,53.546c-8.884-1.184-18.949-1.776-44.41-0.591c-25.462,1.185-37.899,11.842-50.333,20.133
		s-23.686,15.988-34.938,15.988c-11.254,0-18.357-8.29-30.792-17.173c-12.434-8.882-40.265-20.132-40.265-20.132l-5.339-1.779
		c0,0-4.145-6.515-7.105-8.883c-2.961-2.368-8.883-2.369-13.028-3.552c-4.144-1.184-7.698-2.962-15.988-4.146
		c-6.768-0.966-11.161-0.748-12.547-0.636c-1.386-0.112-5.779-0.331-12.547,0.636c-8.29,1.185-11.843,2.963-15.989,4.146
		c-4.144,1.183-10.067,1.184-13.027,3.552c-2.96,2.368-7.106,8.883-7.106,8.883l-5.338,1.779c0,0-27.831,11.25-40.266,20.132
		c-12.434,8.883-19.539,17.173-30.791,17.173c-11.252,0-22.504-7.697-34.939-15.988c-12.434-8.291-24.871-18.948-50.333-20.133
		c-25.462-1.185-35.528-0.593-44.41,0.591c-8.883,1.185-31.385,20.726-20.727,52.703c10.659,31.975,40.86,61.583,47.374,65.728
		c6.513,4.145,20.724,17.173,29.606,19.542c8.883,2.368,11.846,1.183,18.95,2.96c6.904,1.726,11.034,5.682,22.125,7.534
		c4.017-16.904,28.744-26.318,70.554-26.634c2.237-0.016,4.436,0.027,6.617,0.097c-0.735-4.865-1.638-11.763-6.286-15.748
		c-7.049-6.042-7.049-6.042-14.098-11.077c-5.116-3.654-4.926-17.381-2.898-26.948c-5.896,3.889-8.99,2.156-6.741-0.655
		c2.37-2.96,10.066-20.726,21.318-33.752c11.251-13.027,27.492-25.936,39.081-30.201c1.649-0.606,6.578-1.081,7.526-1.169
		c2.48-1.318,6.247,0.394,7.981-0.328c-4.737-4.421-4.069-7.87-4.069-7.87s14.857-1.415,19.808-4.245
		c4.95-2.83,5.659,0,10.612-1.414c2.71-0.775,4.569-0.062,6.048,1.202c3.256-1.286,7.172-2.004,9.977-1.202
		c4.954,1.414,5.663-1.415,10.613,1.414c4.95,2.83,19.807,4.245,19.807,4.245c1.537-0.008-0.853,4.474-4.588,7.238
		c3.861,0.249,11.435-1.515,17.462,2.129c1.104,0.667,2.179,1.355,3.234,2.055c11.003,5.53,24.603,16.79,34.412,28.146
		c11.252,13.026,18.948,30.792,21.317,33.752c2.032,2.539-0.299,4.194-5.108,1.631c1.837,9.501,1.85,22.441-3.095,25.972
		c-7.049,5.035-7.049,5.035-14.098,11.077c-4.618,3.958-5.536,10.814-6.266,15.681c1.502-0.03,3.016-0.04,4.542-0.03
		c41.894,0.316,66.638,9.767,70.579,26.734c11.547-1.807,15.692-5.878,22.719-7.635c7.106-1.777,10.067-0.593,18.95-2.96
		c8.884-2.369,23.093-15.397,29.608-19.542c6.515-4.145,36.714-33.753,47.372-65.728C574.245,74.272,551.744,54.73,542.861,53.546z
		 M158.757,133.075c-1.363,12.403-0.591,21.885-1.183,28.391c-0.591,6.506-5.915,7.689-5.915-2.957s0-30.165,3.549-37.263
		c3.549-7.098,2.366-14.787,2.366-14.787s-21.885-2.957-29.574-8.872c-7.689-5.915-17.744-16.561-29.574-19.519
		c-11.83-2.957-28.249-12.057-28.249-12.057s28.249,3.185,35.938,8.508s10.055,10.055,21.293,15.378
		c11.238,5.323,14.195,8.872,23.659,10.055c9.464,1.183,20.702-0.591,20.702-0.591S161.828,105.134,158.757,133.075z
		 M486.106,78.068c-11.83,2.957-21.885,13.604-29.574,19.519s-29.574,8.872-29.574,8.872s-1.183,7.689,2.366,14.787
		c3.549,7.098,3.549,26.616,3.549,37.263s-5.323,9.464-5.915,2.957c-0.591-6.506,0.18-15.988-1.183-28.391
		c-3.071-27.94-13.012-33.714-13.012-33.714s11.238,1.774,20.702,0.591s12.421-4.732,23.659-10.055
		c11.238-5.323,13.604-10.055,21.293-15.378c7.689-5.323,35.938-8.508,35.938-8.508S497.936,75.11,486.106,78.068z"/>
	<path d="M378.126,302.669c-24.693-0.725-44.453-10.656-58.731-29.519c-1.067-1.409-2.056-2.839-3.011-4.276
		c-0.44,0.119-0.838,0.002-1.156-0.422c-2.122-2.83-1.415-0.001-1.415,5.659c0,3.375,2.012,9.263,2.887,13.169
		c1.042,1.619,1.809,2.999,2.557,3.81c1.964,2.129,4.959,11.969,6.344,18.011s8.309,10.07,12.625,17.361
		c1.049,1.772,2.316,3.639,3.631,5.481c1.242,0.952,2.455,2.369,3.566,4.843c2.799,3.739,5.105,6.815,5.105,7.896
		c0,2.014,8.309,22.826,13.155,32.896c2.902,6.03,2.571,8.683,1.546,10.423c4.46,6.586,4.18,20.042,4.18,29.522
		c0,10.07,2.155,35.245-4.309,47.329c-6.464,12.084-10.773,4.941-16.16,4.941c-2.21,0-8.366,3.353-15.636,7.426
		c-2.346-1.225-2.401-2.63-5.084-1.168c-2.734,1.49-5.466,4.474-5.218-0.497c0.247-4.971-1.989-10.685,7.454-17.892
		c9.443-7.207,12.673-7.207,12.921-11.183c0.248-3.977,0-7.455,1.988-7.455c1.989,0,2.735,1.49,2.735,1.49s2.484,11.183,0.495,15.16
		c-1.81,3.62,1.199,6.807,2.354,5.175c2.173-3.069,5.648-9.89,6.083-13.981c0.433-4.091-3.477-14.662-7.387-16.709
		c-1.535-0.803-3.61-0.18-6.031,1.029c-4.9,0.488-11.301,2.428-15.939,4.768c-6.083,3.07-11.242,7.447-16.456,8.13
		c-5.214,0.683-19.167-3.697-23.948-3.356c-4.78,0.341-5.216,2.729-14.338,1.365c-9.122-1.365-12.165-1.365-19.984-4.093
		c-7.821-2.729-15.205-9.89-19.115-7.843c-3.91,2.047-7.821,12.619-7.387,16.709c0.435,4.091,3.911,10.912,6.083,13.981
		c1.502,2.123,4.062,0.327,2.426-3.594c-1.712-4.104,1.53-15.091,1.53-15.091s0.845-1.436,2.829-1.3
		c1.984,0.136,1.5,3.589,1.475,7.574c-0.024,3.984,3.199,4.204,12.127,12.039c6.918,6.07,6.902,10.765,6.501,14.887
		c-4.488,1.896-8.967,2.694-12.979,2.079c-11.226-1.719-13.141-7.649-18.486-7.649c-5.345,0-9.62,7.143-16.034-4.941
		c-6.414-12.084-4.276-37.259-4.276-47.329c0-6.411,1.737-12.41,4.375-17.485c-0.218-2.915,0.22-8.193-1.354-12.39
		c-2.77-7.385,3.462-20.14,11.078-33.567c2.683-4.73,4.93-8.282,6.875-11.325c0.447-1.218,0.872-2.414,1.254-3.559
		c1.598-4.792,3.483-6.696,5.397-7.867c0.593-1.275,1.16-2.617,1.707-4.103c3.462-9.399,6.232-11.413,11.078-16.112
		c4.847-4.699,4.847-5.371,6.232-12.084c0.735-3.565,2.263-6.562,4.87-9.594c0.312-3.477,3.259-11.242,3.259-15.326
		c0-5.66,0.708-8.489-1.414-5.659c-0.429,0.571-1.003,0.588-1.633,0.208c-0.996,1.508-2.031,3.01-3.151,4.489
		c-14.279,18.863-34.04,28.794-58.733,29.519c-1.471,0.043-3.186,0.093-5.088,0.093c-9.176,0-22.761-1.165-34.906-9.866
		c0.075,0.976,0.158,1.956,0.26,2.938c0,0,5.885,17.831,5.041,40.109c-0.394,10.385,5.895,19.296,8.977,29.193
		c4.151,13.331,19.52,30.214,19.544,44.058c0.048,27.263-4.729,57.502,4.227,83.855c10.83,31.868,33.593,39.73,63.243,43.72
		c32.735,4.405,64.144,6.689,93.851-10.489c14.846-8.584,26.114-21.989,31.797-38.203c7.876-22.472,7.254-47.651,7.573-71.15
		c0.345-25.453-2.4-19.19,5.368-43.687c2.091-6.595,11.953-10.245,16.006-28.189c3.136-13.88,3.744-43.105,3.856-51.532
		C402.787,303.383,386.522,302.915,378.126,302.669z M289.326,527.32c-64.502-2.357-71.7-24.264-70.06-38.092
		c1.735,0.671,3.211,2.204,3.965,4.465c1.182,3.541,8.845,27.696,68.216,26.064c59.371,1.633,67.035-22.523,68.216-26.064
		c1.185-3.554,4.145-5.331,7.109-4.739c0.062,0.012,0.125,0.018,0.187,0.028C364.4,507.92,350.215,529.546,289.326,527.32z"/>
</g>
<path d="M441.005,231.214c0.585-7.413,0.777-15.615,0.497-24.724c-0.539-17.773-27.111-26.808-67.174-27.11
	c-12.044-0.091-23.179,1.134-32.894,3.436c-9.042,0.177-18.853,0.218-29.199,0.214c-6.962,0-14.165-0.015-21.543-0.015
	c-15.946,0-31.068,0.182-44.676,0.182c-3.586,0.003-7.059-0.01-10.427-0.045c-10.04-2.522-21.678-3.866-34.307-3.772
	c-40.062,0.302-66.633,9.337-67.174,27.11c-0.279,9.179-0.081,17.437,0.51,24.894c-4.03,1.195-6.892,4.177-6.892,7.67
	c0,4.063,3.861,7.43,8.938,8.107c9.302,49.694,40.745,52.091,60.702,51.51c53.152-1.559,70.597-48.195,74.04-74.215h0.126
	c0.017-8.988,7.287-16.259,16.273-16.274c8.988,0.015,16.254,7.285,16.272,16.274h0.126c3.444,26.02,20.887,72.656,74.037,74.215
	c19.95,0.58,51.374-1.813,60.694-51.438c5.384-0.467,9.567-3.951,9.567-8.179C448.502,235.387,445.356,232.283,441.005,231.214z
	 M264.966,222.275c-2.508-18.193-28.873-30.572-63.509-30.298c-34.597,0.274-58.001,8.178-60.268,23.709h-0.295
	c0.011-1.931,0.045-3.908,0.107-5.938c0.487-15.999,24.4-24.13,60.456-24.402c36.059-0.271,63.168,12.472,63.71,30.907
	C265.218,217.961,265.158,219.992,264.966,222.275z M287.806,200.085c-6.644,0.003-12.656,2.667-17.051,6.975
	c-2.255-6.105-7.329-11.464-14.598-15.795c10.876-0.051,22.482-0.157,34.536-0.155c7.368-0.003,14.569,0.014,21.543,0.014
	c2.524-0.001,5.007-0.006,7.468-0.01c-7.404,4.358-12.568,9.769-14.849,15.945C300.459,202.752,294.448,200.089,287.806,200.085z
	 M374.153,191.977c-34.636-0.274-61,12.105-63.508,30.298c-0.192-2.283-0.253-4.314-0.202-6.022
	c0.545-18.435,27.653-31.177,63.71-30.906c36.058,0.273,59.969,8.402,60.459,24.401c0.062,2.03,0.096,4.007,0.107,5.938h-0.294
	C432.154,200.155,408.753,192.251,374.153,191.977z"/>
</svg>
